<svg xmlns="http://www.w3.org/2000/svg" xmlns:xlink="http://www.w3.org/1999/xlink" width="160" zoomAndPan="magnify" viewBox="0 0 120 30.000001" height="40" preserveAspectRatio="xMidYMid meet" version="1.0"><defs><g/><clipPath id="31f68930fd"><rect x="0" width="25" y="0" height="7"/></clipPath><clipPath id="fcb8e21d87"><path d="M 43.234375 11 L 58 11 L 58 19.476562 L 43.234375 19.476562 Z M 43.234375 11 " clip-rule="nonzero"/></clipPath><clipPath id="cfaa495e8a"><path d="M 44 8.589844 L 59 8.589844 L 59 17 L 44 17 Z M 44 8.589844 " clip-rule="nonzero"/></clipPath></defs><g transform="matrix(1, 0, 0, 1, 58, 11)"><g clip-path="url(#31f68930fd)"><g fill="#f5fff9" fill-opacity="1"><g transform="translate(0.985828, 5.099326)"><g><path d="M 3.875 0 L 0.765625 0 L 0.765625 -3.140625 L 3.84375 -3.140625 L 3.84375 -2.59375 L 1.46875 -2.59375 L 1.46875 -1.890625 L 3.0625 -1.890625 L 3.0625 -1.390625 L 1.46875 -1.390625 L 1.46875 -0.578125 L 3.875 -0.578125 Z M 3.875 0 "/></g></g></g><g fill="#f5fff9" fill-opacity="1"><g transform="translate(5.382811, 5.099326)"><g><path d="M 2.71875 -3.140625 L 4.453125 0 L 3.703125 0 L 3.328125 -0.6875 L 1.328125 -0.6875 L 0.9375 0 L 0.25 0 L 2 -3.140625 Z M 1.609375 -1.203125 L 3.03125 -1.203125 L 2.328125 -2.484375 Z M 1.609375 -1.203125 "/></g></g></g><g fill="#f5fff9" fill-opacity="1"><g transform="translate(10.096718, 5.099326)"><g><path d="M 2.1875 0 L 1.484375 0 L 1.484375 -2.59375 L 0.078125 -2.59375 L 0.078125 -3.140625 L 3.578125 -3.140625 L 3.578125 -2.59375 L 2.1875 -2.59375 Z M 2.1875 0 "/></g></g></g><g fill="#f5fff9" fill-opacity="1"><g transform="translate(13.765629, 5.099326)"><g><path d="M 1.46875 0 L 0.765625 0 L 0.765625 -3.140625 L 1.46875 -3.140625 Z M 1.46875 0 "/></g></g></g><g fill="#f5fff9" fill-opacity="1"><g transform="translate(16.006948, 5.099326)"><g><path d="M 0.765625 0 L 0.765625 -3.140625 L 3.84375 -3.140625 L 3.84375 -2.59375 L 1.46875 -2.59375 L 1.46875 -1.75 L 3.0625 -1.75 L 3.0625 -1.234375 L 1.46875 -1.234375 L 1.46875 0 Z M 0.765625 0 "/></g></g></g><g fill="#f5fff9" fill-opacity="1"><g transform="translate(19.932825, 5.099326)"><g><path d="M 2.375 0 L 1.6875 0 L 1.6875 -1.390625 L 0.078125 -3.140625 L 0.96875 -3.140625 L 2.046875 -1.96875 L 3.015625 -3.140625 L 3.796875 -3.140625 L 2.375 -1.453125 Z M 2.375 0 "/></g></g></g></g></g><g clip-path="url(#fcb8e21d87)"><path fill="#f5fff9" d="M 53.726562 11.695312 L 48.882812 11.695312 C 48.675781 11.695312 48.5 11.769531 48.351562 11.914062 C 48.207031 12.0625 48.132812 12.238281 48.132812 12.445312 C 48.132812 12.652344 48.207031 12.828125 48.351562 12.972656 C 48.5 13.121094 48.675781 13.195312 48.882812 13.195312 L 53.726562 13.195312 C 54.035156 13.195312 54.335938 13.253906 54.621094 13.375 C 54.90625 13.492188 55.160156 13.664062 55.378906 13.882812 C 55.597656 14.101562 55.765625 14.355469 55.886719 14.640625 C 56.003906 14.925781 56.066406 15.226562 56.066406 15.535156 C 56.066406 15.84375 56.007812 16.144531 55.886719 16.429688 C 55.765625 16.714844 55.597656 16.96875 55.378906 17.1875 C 55.160156 17.40625 54.90625 17.578125 54.621094 17.695312 C 54.335938 17.816406 54.035156 17.875 53.726562 17.875 L 43.25 17.875 L 43.25 19.375 L 53.726562 19.375 C 54.234375 19.371094 54.722656 19.273438 55.191406 19.078125 C 55.664062 18.882812 56.078125 18.605469 56.4375 18.246094 C 56.796875 17.886719 57.074219 17.472656 57.269531 17.003906 C 57.464844 16.53125 57.5625 16.042969 57.566406 15.535156 C 57.5625 15.027344 57.464844 14.539062 57.269531 14.066406 C 57.074219 13.597656 56.796875 13.183594 56.4375 12.824219 C 56.078125 12.464844 55.664062 12.1875 55.195312 11.992188 C 54.722656 11.796875 54.234375 11.699219 53.726562 11.695312 Z M 53.726562 11.695312 " fill-opacity="1" fill-rule="nonzero"/></g><g clip-path="url(#cfaa495e8a)"><path fill="#f5fff9" d="M 48.492188 8.589844 C 47.984375 8.59375 47.496094 8.691406 47.023438 8.886719 C 46.554688 9.082031 46.140625 9.359375 45.78125 9.71875 C 45.421875 10.078125 45.144531 10.492188 44.949219 10.960938 C 44.753906 11.433594 44.65625 11.921875 44.652344 12.429688 C 44.65625 12.9375 44.753906 13.429688 44.949219 13.898438 C 45.144531 14.367188 45.421875 14.78125 45.78125 15.140625 C 46.140625 15.5 46.554688 15.777344 47.023438 15.972656 C 47.496094 16.167969 47.984375 16.265625 48.492188 16.269531 L 53.335938 16.269531 C 53.542969 16.269531 53.71875 16.195312 53.863281 16.050781 C 54.011719 15.902344 54.082031 15.726562 54.082031 15.519531 C 54.082031 15.3125 54.011719 15.136719 53.863281 14.992188 C 53.71875 14.84375 53.542969 14.773438 53.335938 14.769531 L 48.492188 14.769531 C 48.183594 14.769531 47.882812 14.710938 47.597656 14.589844 C 47.3125 14.472656 47.058594 14.300781 46.839844 14.082031 C 46.621094 13.863281 46.449219 13.609375 46.332031 13.324219 C 46.210938 13.039062 46.152344 12.738281 46.152344 12.429688 C 46.152344 12.121094 46.210938 11.820312 46.332031 11.535156 C 46.449219 11.25 46.621094 10.996094 46.839844 10.777344 C 47.058594 10.558594 47.3125 10.386719 47.597656 10.269531 C 47.882812 10.148438 48.183594 10.089844 48.492188 10.089844 L 58.96875 10.089844 L 58.96875 8.589844 Z M 48.492188 8.589844 " fill-opacity="1" fill-rule="nonzero"/></g></svg>